# xmcd
#
# Track frame offsets:
#	150
#	21072
#	34915
#	47605
#	63247
#	77005
#	89560
#	104540
#	115935
#	132142
#
# Disc length: 1920 seconds
#
# Revision: 5
# Processed by: cddbd v1.5.2PL0 Copyright (c) Steve Scherf et al.
# Submitted via: dBpowerAMP V4.0
#
DISCID=7d077e0a
DTITLE=Johnny Mathis - Chances Are
DYEAR=1972
DGENRE=Top 40
TTITLE0=Laura
TTITLE1=What Are You Doing for the Rest of Your Life?
TTITLE2=Wonderful! Wonderful!
TTITLE3=Brian's Song (The Hands of Time)
TTITLE4=Chances Are
TTITLE5=On A Clear Day
TTITLE6=Small World
TTITLE7=This Heart of Mine
TTITLE8=Misty
TTITLE9=Teacher, Teacher
EXTD=
EXTT0=
EXTT1=
EXTT2=
EXTT3=
EXTT4=
EXTT5=
EXTT6=
EXTT7=
EXTT8=
EXTT9=
PLAYORDER=
